<svg xmlns="http://www.w3.org/2000/svg" xmlns:xlink="http://www.w3.org/1999/xlink" width="1920" zoomAndPan="magnify" viewBox="0 0 1440 809.999993" height="1080" preserveAspectRatio="xMidYMid meet" version="1.0"><defs><g/><clipPath id="773903220d"><path d="M 98.667969 220.066406 L 467.175781 220.066406 L 467.175781 588.574219 L 98.667969 588.574219 Z M 98.667969 220.066406 " clip-rule="nonzero"/></clipPath></defs><g clip-path="url(#773903220d)"><path fill="#ffb545" d="M 467.171875 220.066406 L 467.171875 588.5625 L 351.933594 588.5625 L 351.933594 416.789062 L 180.15625 588.5625 L 98.667969 507.078125 L 270.445312 335.304688 L 98.667969 335.304688 L 98.667969 220.066406 Z M 467.171875 220.066406 " fill-opacity="1" fill-rule="nonzero"/></g><g fill="#000000" fill-opacity="1"><g transform="translate(496.452425, 449.463162)"><g><path d="M 58.015625 0 L 12.1875 0 L 12.1875 -109.265625 L 86.71875 -109.265625 C 104.539062 -109.265625 118.921875 -107.929688 129.859375 -105.265625 C 140.796875 -102.597656 148.773438 -98.410156 153.796875 -92.703125 C 158.828125 -86.992188 161.34375 -79.546875 161.34375 -70.359375 C 161.34375 -61.222656 158.828125 -53.796875 153.796875 -48.078125 C 148.773438 -42.367188 140.796875 -38.179688 129.859375 -35.515625 C 118.921875 -32.847656 104.539062 -31.515625 86.71875 -31.515625 L 58.015625 -31.515625 Z M 58.015625 -58.484375 L 84.21875 -58.546875 C 91.519531 -58.546875 97.273438 -58.835938 101.484375 -59.421875 C 105.703125 -60.003906 108.8125 -60.828125 110.8125 -61.890625 C 112.820312 -62.960938 114.101562 -64.222656 114.65625 -65.671875 C 115.21875 -67.117188 115.5 -68.679688 115.5 -70.359375 C 115.5 -72.078125 115.21875 -73.660156 114.65625 -75.109375 C 114.101562 -76.554688 112.820312 -77.8125 110.8125 -78.875 C 108.8125 -79.945312 105.703125 -80.773438 101.484375 -81.359375 C 97.273438 -81.941406 91.519531 -82.234375 84.21875 -82.234375 L 58.015625 -82.234375 Z M 58.015625 -58.484375 "/></g></g></g><g fill="#000000" fill-opacity="1"><g transform="translate(654.330119, 449.463162)"><g><path d="M 139.71875 0 L 12.1875 0 L 12.1875 -109.265625 L 58.015625 -109.265625 L 58.015625 -27.03125 L 139.71875 -27.03125 Z M 139.71875 0 "/></g></g></g><g fill="#000000" fill-opacity="1"><g transform="translate(787.54451, 449.463162)"><g><path d="M 183.5 0 L 137.046875 0 L 126.78125 -17.890625 L 57.875 -17.890625 L 47.59375 0 L 1.140625 0 L 71.046875 -109.1875 L 113.609375 -109.1875 Z M 111.3125 -44.921875 L 92.359375 -78.046875 L 73.328125 -44.921875 Z M 111.3125 -44.921875 "/></g></g></g><g fill="#000000" fill-opacity="1"><g transform="translate(962.625619, 449.463162)"><g><path d="M 174.28125 0 L 119.765625 0 L 58.015625 -73.9375 L 58.015625 0 L 12.1875 0 L 12.1875 -109.265625 L 66.703125 -109.265625 L 128.453125 -35.703125 L 128.453125 -109.265625 L 174.28125 -109.265625 Z M 174.28125 0 "/></g></g></g><g fill="#000000" fill-opacity="1"><g transform="translate(1139.53364, 449.463162)"><g><path d="M 58.015625 0 L 12.1875 0 L 12.1875 -109.265625 L 58.015625 -109.265625 Z M 58.015625 0 "/></g></g></g><g fill="#000000" fill-opacity="1"><g transform="translate(1200.20442, 449.463162)"><g><path d="M 93.203125 0 L 47.359375 0 L 47.359375 -82.234375 L 4.5625 -82.234375 L 4.5625 -109.265625 L 135.984375 -109.265625 L 135.984375 -82.234375 L 93.203125 -82.234375 Z M 93.203125 0 "/></g></g></g></svg>